<svg width="363" height="400" viewBox="0 0 363 400" fill="none" xmlns="http://www.w3.org/2000/svg">
<path d="M295.491 362.147C310.448 363.959 335.637 364.259 355.845 351.336L362.409 361.588C337.496 377.523 307.216 376.103 291.828 373.979L289.759 373.694L288.296 372.208L45.668 124.002L54.3732 115.487L295.491 362.147Z" fill="#E894FF"/>
<path d="M165.78 197.116L120.85 279.982L120.196 281.171L34.583 400L0 375.085L58.8554 293.397L43.2169 288.568L85.197 152.65L165.78 197.116Z" fill="#E894FF"/>
<path d="M254.259 112.633L187.947 224.956L181.894 254.735L140.128 246.22L147.632 209.413L202.206 116.95L163.841 71.3067L112.775 95.1866L96.6372 163.996L55.1328 154.268L76.0039 65.3367L175.436 18.8494L254.259 112.633ZM269.778 14.9606L251.274 64.3021L211.363 49.3415L229.867 0L269.778 14.9606Z" fill="#E894FF"/>
</svg>
