<svg width="459" height="289" viewBox="0 0 459 289" fill="none" xmlns="http://www.w3.org/2000/svg">
<rect x="15" y="15" width="429" height="259" rx="45" stroke="#FBFBFB" stroke-width="30"/>
<path d="M183.555 53.27C179.631 53.27 177.453 50.444 177.453 46.592C177.453 42.668 179.703 39.86 183.627 39.86C187.029 39.86 188.937 41.93 189.243 44.756H186.399C186.165 43.406 185.499 42.146 183.519 42.146C181.107 42.146 180.315 44.09 180.315 46.556C180.315 49.04 181.107 50.984 183.519 50.984C185.517 50.984 186.219 49.724 186.399 48.23H189.243C188.955 51.146 186.993 53.27 183.555 53.27ZM195.902 53.27C191.906 53.27 189.548 50.444 189.548 46.556C189.548 42.686 191.906 39.86 195.902 39.86C199.88 39.86 202.256 42.686 202.256 46.556C202.256 50.444 199.88 53.27 195.902 53.27ZM195.902 50.984C198.494 50.984 199.412 48.95 199.412 46.556C199.412 44.162 198.494 42.146 195.902 42.146C193.292 42.146 192.41 44.162 192.41 46.556C192.41 48.95 193.292 50.984 195.902 50.984ZM205.901 53H203.255V40.13H206.711L209.753 49.04H209.789L212.831 40.13H216.305V53H213.641V44.252H213.605L210.797 53H208.763L205.937 44.252H205.901V53ZM220.527 53H217.881V40.13H221.337L224.379 49.04H224.415L227.457 40.13H230.931V53H228.267V44.252H228.231L225.423 53H223.389L220.563 44.252H220.527V53ZM237.654 53.27C233.892 53.27 232.398 51.506 232.398 48.464V40.13H235.188V48.464C235.188 50.246 235.998 50.984 237.654 50.984C239.31 50.984 240.138 50.246 240.138 48.464V40.13H242.91V48.464C242.91 51.506 241.416 53.27 237.654 53.27ZM247.162 53H244.39V40.13H247.27L252.328 48.608H252.364V40.13H255.136V53H252.256L247.198 44.522H247.162V53ZM259.485 53H256.713V40.13H259.485V53ZM266.869 53H264.097V42.434H260.191V40.13H270.757V42.434H266.869V53ZM277.6 53H274.828V48.104L270.364 40.13H273.352L276.196 45.854H276.232L279.112 40.13H282.046L277.6 48.104V53Z" fill="#FBFBFB"/>
<path d="M57.2878 241L39.5278 62.44H72.1678L78.1678 184.12L84.4078 62.44H113.928L97.8478 241H57.2878ZM183.721 96.04V208.12C183.721 230.44 171.241 242.68 151.561 242.68H146.521C125.641 242.68 114.121 229.96 114.121 208.12V96.04C114.121 74.2 123.961 60.76 146.521 60.76H151.321C173.881 60.76 183.721 74.68 183.721 96.04ZM152.521 210.76V92.68C152.521 89.32 151.561 87.4 148.921 87.4C146.281 87.4 145.561 89.08 145.561 92.68V210.76C145.561 213.88 146.521 215.56 148.921 215.56C151.321 215.56 152.521 213.88 152.521 210.76ZM218.429 62.44V241H187.949V62.44H218.429ZM256.957 216.52C259.597 216.52 260.077 214.36 260.077 211.48V159.4H289.837V212.2C289.837 228.28 280.957 242.68 259.597 242.68H254.797C231.997 242.68 222.637 230.2 222.637 209.32V93.16C222.877 74.44 231.517 60.76 254.557 60.76H259.597C280.717 60.76 289.837 72.28 289.837 89.8V137.08H260.077V90.76C260.077 87.88 259.597 86.2 256.957 86.2C254.557 86.2 253.837 87.64 253.837 90.76V211.48C253.837 214.6 254.557 216.52 256.957 216.52ZM293.887 62.44H345.247V89.8H323.647V133.24H341.887V161.56H323.647V213.16H345.967V241H293.887V62.44ZM378.948 242.68C359.028 242.68 349.188 233.32 349.188 215.08V168.28H378.948V212.92C378.948 215.8 379.668 217.72 382.068 217.72C384.708 217.72 385.428 215.8 385.428 212.68V177.88C385.428 172.12 384.708 169.72 380.148 165.64L364.548 152.2C354.228 143.56 349.908 133.72 349.908 120.28V88.6C349.908 72.04 358.788 60.76 380.388 60.76H387.348C409.188 60.76 416.148 71.8 416.148 86.2V125.56H386.868V87.64C386.868 85 385.908 83.8 383.748 83.8C381.588 83.8 380.628 85 380.628 87.64V118.12C380.628 122.92 381.588 124.84 385.428 128.2L400.788 141.64C413.028 151.72 417.348 159.88 417.348 175.48V211C417.348 229.96 407.748 242.68 385.908 242.68H378.948Z" fill="#FBFBFB"/>
</svg>
