<svg width="620" height="620" viewBox="0 0 620 620" fill="none" xmlns="http://www.w3.org/2000/svg">
<path d="M200.43 38.3802L258.637 88.5749L390.168 170.219L395.859 180.644L397.689 177.491L408.181 159.262L445.105 180.519L436.552 195.362L418.098 310.287L358.161 200.487L234.775 123.91L233.36 123.028L168.015 66.685L163.414 62.708L147.789 12.713L188.441 0L200.43 38.3802Z" fill="#23002B"/>
<path d="M387.922 102.037L337.469 138.844L312.359 104.433L362.812 67.625L387.922 102.037Z" fill="#23002B"/>
<path d="M326.936 421.883L464.949 434.422L471.863 516.39L429.414 519.976L425.495 473.601L318.508 463.891L399.062 557.783L377.181 619.65L337.02 605.448L350.682 566.81L254.852 455.122L263.979 319.622L285.203 321.053L306.086 316.901L326.936 421.883Z" fill="#23002B"/>
<path d="M427.925 77.426L422.866 203.291L420.32 203.191L425.379 77.3262L427.925 77.426Z" fill="#23002B"/>
<path d="M444.354 48.9329C446.776 39.6623 446.874 30.8496 445.19 24.1444C443.479 17.3372 440.136 13.3131 436.19 12.2819C432.244 11.2524 427.367 13.1294 422.546 18.2276C417.796 23.2517 413.563 30.984 411.141 40.2544C408.718 49.5255 408.628 58.3394 410.313 65.045C412.023 71.8515 415.359 75.873 419.304 76.9054L418.659 79.3766C408.123 76.6207 403.65 58.818 408.669 39.6087C413.689 20.4002 426.299 7.06024 436.836 9.81063C447.373 12.5641 451.852 30.3703 446.833 49.5807L445.799 53.1113C440.238 70.3962 428.538 81.958 418.659 79.3766L419.304 76.9054C423.251 77.9367 428.134 76.0633 432.957 70.9618C437.706 65.9374 441.931 58.2039 444.354 48.9329Z" fill="#23002B"/>
</svg>
