<svg version="1.2" xmlns="http://www.w3.org/2000/svg" viewBox="0 0 298 279" width="298" height="279"><defs><clipPath clipPathUnits="userSpaceOnUse" id="cp1"><path d="m149.6 0c43.97 0 79.61 35.64 79.61 79.61 0 12.52-2.89 24.37-8.05 34.92-1 2.05 0.42 4.54 2.7 4.72 40.99 3.24 73.25 37.53 73.25 79.35 0 43.97-35.64 79.61-79.61 79.61-27.6 0-51.93-14.05-66.21-35.39-1.28-1.92-4.19-1.92-5.48 0-14.28 21.34-38.6 35.39-66.2 35.39-43.97 0-79.61-35.64-79.61-79.61 0-43.96 35.64-79.6 79.61-79.6 0.36 0 0.59-0.39 0.41-0.7-6.38-11.46-10.02-24.65-10.02-38.69 0-43.97 35.64-79.61 79.6-79.61z"/></clipPath></defs><style>tspan{white-space:pre}.a{fill:#e894ff}.b{font-size: 42px;fill: #000000;font-weight: 400;font-family: "BowlbyOneSC-Regular", "Bowlby One SC"}.c{font-size: 29px;fill: #000000;font-weight: 400;font-family: "BowlbyOneSC-Regular", "Bowlby One SC"}.d{fill:#23002b}</style><path class="a" d="m149.6 0c44 0 79.6 35.6 79.6 79.6 0 12.5-2.9 24.4-8 34.9-1 2.1 0.4 4.6 2.7 4.8 41 3.2 73.2 37.5 73.2 79.3 0 44-35.6 79.6-79.6 79.6-27.6 0-51.9-14-66.2-35.4-1.3-1.9-4.2-1.9-5.5 0-14.3 21.4-38.6 35.4-66.2 35.4-44 0-79.6-35.6-79.6-79.6 0-44 35.6-79.6 79.6-79.6 0.4 0 0.6-0.4 0.4-0.7-6.4-11.5-10-24.7-10-38.7 0-44 35.6-79.6 79.6-79.6z"/><text transform="translate(149,114)"><tspan x="-48.3" y="0" class="b">Y</tspan><tspan  y="0" class="b">O</tspan><tspan  y="0" class="b">U</tspan><tspan  y="0" class="b">
</tspan><tspan x="-58.4" y="50.4" class="b">H</tspan><tspan  y="50.4" class="b">a</tspan><tspan  y="50.4" class="b">v</tspan><tspan  y="50.4" class="b">e</tspan><tspan  y="50.4" class="b">
</tspan><tspan x="-117.1" y="85.2" class="c">B</tspan><tspan  y="85.2" class="c">a</tspan><tspan  y="85.2" class="c">l</tspan><tspan  y="85.2" class="c">l</tspan><tspan  y="85.2" class="c">s</tspan><tspan  y="85.2" class="c"> </tspan><tspan  y="85.2" class="c">o</tspan><tspan  y="85.2" class="c">f</tspan><tspan  y="85.2" class="c"> </tspan><tspan  y="85.2" class="c">S</tspan><tspan  y="85.2" class="c">t</tspan><tspan  y="85.2" class="c">e</tspan><tspan  y="85.2" class="c">e</tspan><tspan  y="85.2" class="c">l</tspan><tspan  y="85.2" class="b">
</tspan></text><g clip-path="url(#cp1)"><path class="d" d="m149.6 0v12c37.3 0 67.6 30.3 67.6 67.6h12 12c0-50.6-41-91.6-91.6-91.6zm79.6 79.6h-12c0 10.7-2.4 20.7-6.8 29.7l10.8 5.2 10.7 5.3c6-12.1 9.3-25.8 9.3-40.2zm67.9 119h-12c0 37.3-30.3 67.6-67.6 67.6v12 12c50.6 0 91.6-41 91.6-91.6zm-79.6 79.6v-12c-23.4 0-44.1-11.9-56.2-30.1l-10 6.7-10 6.7c16.4 24.5 44.4 40.7 76.2 40.7zm-71.7-35.4l-10-6.7c-12.1 18.2-32.8 30.1-56.2 30.1v12 12c31.8 0 59.8-16.2 76.2-40.7zm-66.2 35.4v-12c-37.4 0-67.6-30.3-67.6-67.6h-12-12c0 50.6 41 91.6 91.6 91.6zm-79.6-79.6h12c0-37.4 30.2-67.6 67.6-67.6v-12-12c-50.6 0-91.6 41-91.6 91.6zm80-80.3l10.5-5.9c-5.4-9.7-8.5-20.9-8.5-32.8h-12-12c0 16.1 4.2 31.3 11.5 44.5zm-0.4 0.7v12c9.5 0 15.5-10.2 10.9-18.5l-10.5 5.8-10.5 5.9c-4.3-7.8 1.3-17.2 10.1-17.2zm71.7 123.8l10-6.6c-6.1-9.1-19.4-9.1-25.5 0l10 6.6 10 6.7c-3.5 5.2-11 5.2-14.5 0zm-5.5 0l10 6.7zm75.3-128.3l-10.7-5.3c-4.8 9.7 1.8 21.1 12.5 22l0.9-12 1-12c6.1 0.5 9.9 7 7.1 12.6zm2.7 4.7l-0.9 11.9c34.8 2.8 62.2 31.9 62.2 67.4h12 12c0-48.1-37.1-87.6-84.3-91.3zm-74.3-119.2v-12zm79.6 79.6h12zm-5.3 39.6l0.9-11.9zm73.3 79.3h12zm-79.6 79.6v12zm-137.9 0v12zm-79.6-79.6h-12zm79.6-79.6v-12zm-9.6-39.4h12c0-37.3 30.2-67.6 67.6-67.6v-12-12c-50.6 0-91.6 41-91.6 91.6zm0 0h-12zm10 38.7l10.5-5.8zm71.2 124.5l10-6.7zm69.9-128.3l-10.8-5.3z"/><text transform="translate(420,-108)"></text></g></svg>