<svg width="541" height="375" viewBox="0 0 541 375" fill="none" xmlns="http://www.w3.org/2000/svg">
<path d="M440.482 237.299L512.013 320.6L540.845 338.077L518.788 374.472L484.147 353.48L403.734 259.834L368.099 173.282L307.561 239.751L304.373 352.665L253.83 357.27L249.965 314.89L262.895 313.71L265.463 222.769L381.872 94.9556L440.482 237.299Z" fill="#94FFE4"/>
<path d="M246.336 105.059L289.626 93.4008L300.694 134.497L243.971 149.775L152.848 114.547L168.192 74.852L246.336 105.059ZM443.046 28.4321L373.181 81.0654L358.078 108.762L320.714 88.3843L340.227 52.6083L343.901 49.8404L345.813 48.394L317.015 41.3328L327.156 0L443.046 28.4321ZM320.905 60.8126L279.531 70.7831L266.867 18.2454L308.241 8.27071L320.905 60.8126Z" fill="#94FFE4"/>
<path d="M8.22915 47.9165C9.97646 54.545 13.6076 64.7858 18.7317 73.7718C21.2905 78.2589 24.1492 82.3056 27.231 85.4173C30.1761 88.3909 33.1523 90.3172 36.0877 91.1486L386.005 85.7082L386.138 94.22L35.0362 99.6812L34.5043 99.5523C29.3893 98.2992 24.9451 95.2039 21.1838 91.4063C17.4096 87.5954 14.1258 82.8751 11.3379 77.9861C5.76781 68.2179 1.89018 57.2564 0 50.086L8.22915 47.9165Z" fill="#94FFE4"/>
</svg>
